# xmcd
#
# Track frame offsets:
#	150
#	14692
#	29012
#	42955
#	54552
#	71507
#	89722
#	110360
#	125875
#	144322
#	159407
#
# Disc length: 2300 seconds
#
# Revision: 1
# Processed by: cddbd v1.5.1PL2 Copyright (c) Steve Scherf et al.
# Submitted via: audiograbber 1.83.01
#
DISCID=9f08fa0b
DTITLE=Jimena - Jimena
DYEAR=2003
DGENRE=Pop
TTITLE0=No ruegues
TTITLE1=No te vayas
TTITLE2=Quiero contigo
TTITLE3=Maldita ignorancia
TTITLE4=Cara dura
TTITLE5=Y llegaste tú
TTITLE6=Con querer o sin querer
TTITLE7=Aunque tú no quieras
TTITLE8=Sin ti no puedo
TTITLE9=Por un beso de tu boca
TTITLE10=Maldita ignorancia [Version Norteña]
EXTD=
EXTT0=
EXTT1=
EXTT2=
EXTT3=
EXTT4=
EXTT5=
EXTT6=
EXTT7=
EXTT8=
EXTT9=
EXTT10=
PLAYORDER=
